<svg width="18" height="18" viewBox="0 0 18 18" fill="none" xmlns="http://www.w3.org/2000/svg">
<rect width="18" height="18" fill="white" fill-opacity="0.01"/>
<path d="M9.39708 1.4502C9.618 1.4502 9.79708 1.62928 9.79708 1.8502V2.6502C9.79708 2.87111 9.618 3.0502 9.39708 3.0502H3.4502C3.22928 3.0502 3.0502 3.22928 3.0502 3.4502V14.5502C3.0502 14.7711 3.22928 14.9502 3.4502 14.9502H9.4002C9.62111 14.9502 9.8002 15.1293 9.8002 15.3502V16.1502C9.8002 16.3711 9.62111 16.5502 9.4002 16.5502H2.2502C1.84235 16.5502 1.50579 16.245 1.45643 15.8505L1.4502 15.7502V2.2502C1.4502 1.84235 1.75538 1.50579 2.14985 1.45643L2.2502 1.4502H9.39708Z" fill="#455873"/>
<path d="M11.526 5.90787C11.3698 5.75166 11.3698 5.49838 11.526 5.34216L12.0917 4.7765C12.2479 4.62029 12.5012 4.62029 12.6574 4.7765L16.3152 8.43434C16.5992 8.71836 16.6251 9.1628 16.3927 9.47598L16.3152 9.56571L12.6574 13.2236C12.5012 13.3798 12.2479 13.3798 12.0917 13.2236L11.526 12.6579C11.3698 12.5017 11.3698 12.2484 11.526 12.0922L14.3356 9.28288C14.4919 9.12667 14.4919 8.87338 14.3356 8.71716L11.526 5.90787Z" fill="#455873"/>
<path d="M15.7502 8.19678C16.192 8.19678 16.5502 8.55495 16.5502 8.99678C16.5502 9.43861 16.192 9.79678 15.7502 9.79678H5.60019C5.37928 9.79678 5.2002 9.61769 5.2002 9.39678V8.59678C5.2002 8.37586 5.37928 8.19678 5.6002 8.19678H15.7502Z" fill="#455873"/>
</svg>
