<svg width="32" height="32" viewBox="0 0 32 32" fill="none" xmlns="http://www.w3.org/2000/svg">
<path d="M22.6665 8V13.3333V14C20.6964 14 18.926 14.8545 17.7055 16.2132C16.645 17.3937 15.9998 18.9549 15.9998 20.6667C15.9998 21.0526 16.0326 21.4309 16.0956 21.7989C16.4384 23.8031 17.676 25.5019 19.3826 26.4697C17.6076 27.0064 15.2516 27.3333 12.6665 27.3333C7.14364 27.3333 2.6665 25.8409 2.6665 24V18.6667V13.3333V8" stroke="white" stroke-width="2.4" stroke-linecap="round" stroke-linejoin="round"/>
<path d="M29.3333 20.6667C29.3333 24.3485 26.3485 27.3333 22.6667 27.3333C21.4727 27.3333 20.3521 27.0195 19.3827 26.4697C17.6762 25.5019 16.4386 23.8031 16.0957 21.7989C16.0328 21.4309 16 21.0526 16 20.6667C16 18.9549 16.6452 17.3937 17.7057 16.2132C18.9261 14.8545 20.6966 14 22.6667 14C26.3485 14 29.3333 16.9848 29.3333 20.6667Z" stroke="white" stroke-width="2.4" stroke-linecap="round" stroke-linejoin="round"/>
<path d="M22.6665 7.99984C22.6665 9.84077 18.1894 11.3332 12.6665 11.3332C7.14364 11.3332 2.6665 9.84077 2.6665 7.99984C2.6665 6.15889 7.14364 4.6665 12.6665 4.6665C18.1894 4.6665 22.6665 6.15889 22.6665 7.99984Z" stroke="white" stroke-width="2.4" stroke-linecap="round" stroke-linejoin="round"/>
<path d="M2.6665 18.6665C2.6665 20.5074 7.14364 21.9998 12.6665 21.9998C13.8712 21.9998 15.026 21.9288 16.0956 21.7987" stroke="white" stroke-width="2.4" stroke-linecap="round" stroke-linejoin="round"/>
<path d="M2.6665 13.3335C2.6665 15.1744 7.14364 16.6668 12.6665 16.6668C14.504 16.6668 16.2258 16.5016 17.7055 16.2134" stroke="white" stroke-width="2.4" stroke-linecap="round" stroke-linejoin="round"/>
<path d="M22.6668 18L24.9762 19.3333V22L22.6668 23.3333L20.3574 22V19.3333L22.6668 18Z" stroke="white" stroke-width="2.4" stroke-linecap="round" stroke-linejoin="round"/>
</svg>
