<svg width="32" height="32" viewBox="0 0 32 32" fill="none" xmlns="http://www.w3.org/2000/svg">
<path d="M15.9998 29.3332C23.3636 29.3332 29.3332 23.3636 29.3332 15.9998C29.3332 8.63604 23.3636 2.6665 15.9998 2.6665C8.63604 2.6665 2.6665 8.63604 2.6665 15.9998C2.6665 23.3636 8.63604 29.3332 15.9998 29.3332Z" stroke="white" stroke-width="2.4" stroke-linecap="round" stroke-linejoin="round"/>
<path d="M16 29.3335V21.3335" stroke="white" stroke-width="2.4" stroke-linecap="round" stroke-linejoin="round"/>
<path d="M2.6665 16H10.6665" stroke="white" stroke-width="2.4" stroke-linecap="round" stroke-linejoin="round"/>
<path d="M29.3335 16H21.3335" stroke="white" stroke-width="2.4" stroke-linecap="round" stroke-linejoin="round"/>
<path d="M21.3332 15.9998C21.3332 18.9454 18.9454 21.3332 15.9998 21.3332C13.0543 21.3332 10.6665 18.9454 10.6665 15.9998C10.6665 13.0543 13.0543 10.6665 15.9998 10.6665C18.9454 10.6665 21.3332 13.0543 21.3332 15.9998Z" />
<path fill-rule="evenodd" clip-rule="evenodd" d="M21.3332 15.9998C21.3332 18.9454 18.9454 21.3332 15.9998 21.3332C13.0543 21.3332 10.6665 18.9454 10.6665 15.9998C10.6665 13.0543 13.0543 10.6665 15.9998 10.6665C18.9454 10.6665 21.3332 13.0543 21.3332 15.9998Z" />
<path d="M21.3332 15.9998C21.3332 18.9454 18.9454 21.3332 15.9998 21.3332C13.0543 21.3332 10.6665 18.9454 10.6665 15.9998C10.6665 13.0543 13.0543 10.6665 15.9998 10.6665C18.9454 10.6665 21.3332 13.0543 21.3332 15.9998Z" stroke="white" stroke-width="2.4" stroke-linecap="round" stroke-linejoin="round"/>
</svg>
