<svg width="38" height="27" viewBox="0 0 38 27" fill="none" xmlns="http://www.w3.org/2000/svg">
<path d="M21.1428 7.71429C22.7207 7.71429 23.9999 6.43509 23.9999 4.85714C23.9999 3.27919 22.7207 2 21.1428 2C19.5648 2 18.2856 3.27919 18.2856 4.85714C18.2856 6.43509 19.5648 7.71429 21.1428 7.71429Z" stroke="white" stroke-width="2.4" stroke-miterlimit="2"/>
<path d="M19.7144 17.7142L21.4286 13.9999V9.14279L23.7144 7.71422M32.0001 11.4285L30.0001 6.28564H26.0001L23.7144 7.71422M23.7144 7.71422L27.1429 13.1428M27.1429 13.1428L23.7144 18.5714V25.4285M27.1429 13.1428L30.0001 13.9999V18.5714L36.0001 23.4285" stroke="white" stroke-width="2.4" stroke-miterlimit="2" stroke-linecap="round" stroke-linejoin="round"/>
<path d="M33.1012 11.0077C33.3422 10.8729 33.4283 10.5682 33.2935 10.3272C33.1587 10.0862 32.8541 10.0001 32.6131 10.1349L33.1012 11.0077ZM32.6131 10.1349L15.7559 19.5635L16.2441 20.4362L33.1012 11.0077L32.6131 10.1349Z" fill="white"/>
<path d="M0 25.9999L1.14286 22.857H4V17.7141L8 19.9999L11.7143 16.5713L13.1429 19.4284L16 17.7141L20.2857 25.9999H0Z" fill="white"/>
</svg>
