<svg width="18" height="18" viewBox="0 0 18 18" fill="none" xmlns="http://www.w3.org/2000/svg">
<rect width="18" height="18" fill="white" fill-opacity="0.01"/>
<path fill-rule="evenodd" clip-rule="evenodd" d="M9 16.5C11.235 16.5 9.87596 13.176 11.25 11.625C12.4224 10.3016 16.5 10.9071 16.5 9C16.5 4.85786 13.1421 1.5 9 1.5C4.85786 1.5 1.5 4.85786 1.5 9C1.5 13.1421 4.85786 16.5 9 16.5Z" stroke="#455873" stroke-width="1.6" stroke-linejoin="round"/>
<path fill-rule="evenodd" clip-rule="evenodd" d="M10.5 6.375C11.1213 6.375 11.625 5.87134 11.625 5.25C11.625 4.62866 11.1213 4.125 10.5 4.125C9.87866 4.125 9.375 4.62866 9.375 5.25C9.375 5.87134 9.87866 6.375 10.5 6.375Z" stroke="#455873" stroke-width="1.6" stroke-linejoin="round"/>
<path fill-rule="evenodd" clip-rule="evenodd" d="M6 7.875C6.62134 7.875 7.125 7.37134 7.125 6.75C7.125 6.12866 6.62134 5.625 6 5.625C5.37866 5.625 4.875 6.12866 4.875 6.75C4.875 7.37134 5.37866 7.875 6 7.875Z" stroke="#455873" stroke-width="1.6" stroke-linejoin="round"/>
<path fill-rule="evenodd" clip-rule="evenodd" d="M6.375 12.75C6.99634 12.75 7.5 12.2463 7.5 11.625C7.5 11.0037 6.99634 10.5 6.375 10.5C5.75366 10.5 5.25 11.0037 5.25 11.625C5.25 12.2463 5.75366 12.75 6.375 12.75Z" stroke="#455873" stroke-width="1.6" stroke-linejoin="round"/>
</svg>
