<svg width="17" height="20" viewBox="0 0 17 20" fill="none" xmlns="http://www.w3.org/2000/svg">
<path d="M8.43617 0C8.82206 0 9.20463 0.0432468 9.58387 0.129741C9.96311 0.216234 10.3191 0.332668 10.6517 0.479042C10.9844 0.625416 11.2805 0.79175 11.54 0.978044C11.7994 1.16434 12.0024 1.35063 12.1487 1.53693C12.4947 1.96274 12.7475 2.4318 12.9072 2.94411C13.0669 3.45642 13.18 3.94544 13.2465 4.41118C13.3131 4.94345 13.3463 5.48237 13.3463 6.02794C13.4395 6.09448 13.5127 6.18097 13.5659 6.28743C13.6191 6.38057 13.6624 6.50033 13.6956 6.64671C13.7289 6.79308 13.7322 6.97272 13.7056 7.18563C13.679 7.46507 13.6225 7.68796 13.536 7.85429C13.4495 8.02063 13.353 8.15037 13.2465 8.24351C13.1268 8.34997 13.0004 8.42315 12.8673 8.46307C12.8008 8.68929 12.7342 8.90219 12.6677 9.1018C12.6012 9.27478 12.5247 9.44444 12.4382 9.61078C12.3517 9.77711 12.2552 9.90685 12.1487 10C11.8959 10.1996 11.6897 10.3693 11.53 10.509C11.3703 10.6487 11.2638 10.8849 11.2106 11.2176C11.1707 11.4172 11.1574 11.6201 11.1707 11.8263C11.184 12.0326 11.2406 12.2389 11.3404 12.4451C11.4402 12.6514 11.5932 12.8476 11.7994 13.0339C12.0057 13.2202 12.2951 13.3866 12.6677 13.5329C13.0004 13.666 13.363 13.7858 13.7555 13.8922C14.1481 13.9987 14.5306 14.1218 14.9032 14.2615C15.2758 14.4012 15.6052 14.5742 15.8913 14.7804C16.1774 14.9867 16.3803 15.2695 16.5 15.6287C16.5666 15.8417 16.6165 16.1045 16.6497 16.4172C16.683 16.7299 16.6996 17.0459 16.6996 17.3653C16.6996 17.6846 16.6764 17.984 16.6298 18.2635C16.5832 18.5429 16.5133 18.7558 16.4202 18.9022C16.3537 18.9953 16.164 19.0885 15.8513 19.1816C15.5386 19.2748 15.1527 19.3646 14.6937 19.4511C14.2346 19.5376 13.7223 19.6141 13.1567 19.6806C12.5912 19.7472 12.0223 19.8037 11.4501 19.8503C10.878 19.8969 10.329 19.9335 9.80343 19.9601C9.27782 19.9867 8.82206 20 8.43617 20C8.05027 20 7.60117 19.9867 7.08886 19.9601C6.57655 19.9335 6.04761 19.8969 5.50204 19.8503C4.95646 19.8037 4.41421 19.7505 3.87529 19.6906C3.33637 19.6307 2.84735 19.5675 2.40822 19.501C1.9691 19.4345 1.59651 19.3679 1.29046 19.3014C0.984405 19.2349 0.791457 19.1683 0.711617 19.1018C0.57855 18.9953 0.475423 18.6693 0.402236 18.1238C0.329049 17.5782 0.358989 16.8729 0.492056 16.008C0.55859 15.5156 0.754864 15.1397 1.08088 14.8802C1.40689 14.6208 1.78613 14.4145 2.2186 14.2615C2.65107 14.1084 3.10017 13.9721 3.56591 13.8523C4.03164 13.7325 4.44415 13.5595 4.80343 13.3333C5.08287 13.1603 5.29578 12.994 5.44216 12.8343C5.58853 12.6747 5.69498 12.515 5.76152 12.3553C5.82805 12.1956 5.86132 12.0293 5.86132 11.8563C5.86132 11.6833 5.85466 11.4904 5.84136 11.2774C5.81474 10.9714 5.70829 10.7285 5.522 10.5489C5.3357 10.3693 5.12945 10.1863 4.90323 10C4.79678 9.90685 4.70363 9.77711 4.62379 9.61078C4.54395 9.44444 4.47077 9.27478 4.40423 9.1018C4.3377 8.90219 4.27116 8.68929 4.20463 8.46307C4.11148 8.43646 4.01834 8.38989 3.92519 8.32335C3.84535 8.25682 3.75886 8.16367 3.66571 8.04391C3.57256 7.92415 3.49272 7.75116 3.42619 7.52495C3.34635 7.29874 3.31641 7.09248 3.33637 6.90619C3.35633 6.71989 3.39292 6.56021 3.44615 6.42715C3.49937 6.28077 3.58587 6.14105 3.70563 6.00798C3.69232 5.50233 3.71894 4.99667 3.78547 4.49102C3.8387 4.0652 3.93517 3.60612 4.07489 3.11377C4.21461 2.62142 4.42419 2.1823 4.70363 1.79641C4.95646 1.42382 5.23923 1.12109 5.55194 0.888224C5.86464 0.655356 6.18401 0.472389 6.51002 0.339321C6.83603 0.206254 7.16205 0.116434 7.48806 0.0698603C7.81408 0.0232868 8.13011 6.51042e-09 8.43617 1.95313e-08V0Z" fill="white"/>
</svg>
