<svg width="16" height="16" viewBox="0 0 16 16" fill="none" xmlns="http://www.w3.org/2000/svg">
<g clip-path="url(#clip0_485_3220)">
<path d="M4.66675 7.66666C4.66675 7.48257 4.81599 7.33333 5.00008 7.33333H7.33341V5C7.33341 4.8159 7.48265 4.66666 7.66675 4.66666H8.33341C8.51751 4.66666 8.66675 4.8159 8.66675 5V7.33333H11.0001C11.1842 7.33333 11.3334 7.48257 11.3334 7.66666V8.33333C11.3334 8.51743 11.1842 8.66666 11.0001 8.66666H8.66675V11C8.66675 11.1841 8.51751 11.3333 8.33341 11.3333H7.66675C7.48265 11.3333 7.33341 11.1841 7.33341 11V8.66666H5.00008C4.81599 8.66666 4.66675 8.51743 4.66675 8.33333V7.66666Z" fill="white"/>
<path fill-rule="evenodd" clip-rule="evenodd" d="M8.00008 15.3333C12.0502 15.3333 15.3334 12.0501 15.3334 8C15.3334 3.94991 12.0502 0.666664 8.00008 0.666664C3.94999 0.666664 0.666748 3.94991 0.666748 8C0.666748 12.0501 3.94999 15.3333 8.00008 15.3333ZM8.00008 14C11.3138 14 14.0001 11.3137 14.0001 8C14.0001 4.68629 11.3138 2 8.00008 2C4.68637 2 2.00008 4.68629 2.00008 8C2.00008 11.3137 4.68637 14 8.00008 14Z" fill="white"/>
</g>
<defs>
<clipPath id="clip0_485_3220">
<rect width="16" height="16" fill="white"/>
</clipPath>
</defs>
</svg>
