<svg width="16" height="16" viewBox="0 0 16 16" fill="none" xmlns="http://www.w3.org/2000/svg">
<path fill-rule="evenodd" clip-rule="evenodd" d="M8.66659 8.66667V13.3333C8.66659 13.5174 8.51735 13.6667 8.33325 13.6667H7.66659C7.48249 13.6667 7.33325 13.5174 7.33325 13.3333V8.66667H2.66659C2.48249 8.66667 2.33325 8.51743 2.33325 8.33334V7.66667C2.33325 7.48257 2.48249 7.33334 2.66659 7.33334H7.33325V2.66667C7.33325 2.48257 7.48249 2.33334 7.66659 2.33334H8.33325C8.51735 2.33334 8.66659 2.48257 8.66659 2.66667L8.66659 7.33334H13.3333C13.5173 7.33334 13.6666 7.48257 13.6666 7.66667V8.33334C13.6666 8.51743 13.5173 8.66667 13.3333 8.66667H8.66659Z" fill="#455873"/>
</svg>
