<svg width="20" height="21" viewBox="0 0 20 21" fill="none" xmlns="http://www.w3.org/2000/svg">
<path fill-rule="evenodd" clip-rule="evenodd" d="M4.91379 4.19946L10.0001 9.28576L15.0864 4.19946C15.2366 4.04926 15.4729 4.03771 15.6364 4.1648L15.6756 4.19946L16.2649 4.78872C16.4151 4.93892 16.4266 5.17527 16.2995 5.33872L16.2649 5.37797L11.1784 10.4641L16.3364 15.6221C16.4991 15.7848 16.4991 16.0486 16.3364 16.2113L15.7471 16.8006C15.5844 16.9633 15.3206 16.9633 15.1579 16.8006L10.0001 11.6428L4.8423 16.8006C4.6921 16.9508 4.45575 16.9623 4.2923 16.8352L4.25304 16.8006L3.66379 16.2113C3.51359 16.0611 3.50203 15.8248 3.62912 15.6613L3.66379 15.6221L8.82133 10.4641L3.73528 5.37797C3.57256 5.21525 3.57256 4.95144 3.73528 4.78872L4.32453 4.19946C4.48725 4.03674 4.75107 4.03674 4.91379 4.19946Z" fill="#8592A6"/>
</svg>
