<svg width="16" height="16" viewBox="0 0 16 16" fill="none" xmlns="http://www.w3.org/2000/svg">
<path fill-rule="evenodd" clip-rule="evenodd" d="M6.6665 2.33333V3.33333H9.33317V2.33333H6.6665ZM5.99984 1C5.63165 1 5.33317 1.29848 5.33317 1.66667V3.33333H3.33317H1.99984C1.81574 3.33333 1.6665 3.48257 1.6665 3.66667V4.33333C1.6665 4.51743 1.81574 4.66667 1.99984 4.66667H2.6665V14.3333C2.6665 14.7015 2.96498 15 3.33317 15H12.6665C13.0347 15 13.3332 14.7015 13.3332 14.3333V4.66667H13.9998C14.1839 4.66667 14.3332 4.51743 14.3332 4.33333V3.66667C14.3332 3.48257 14.1839 3.33333 13.9998 3.33333H12.6665H10.6665V1.66667C10.6665 1.29848 10.368 1 9.99984 1H5.99984ZM11.9998 4.66667H9.99984H5.99984H3.99984V13.6667H11.9998V4.66667ZM5.83317 7.5C5.83317 7.13181 6.13165 6.83333 6.49984 6.83333C6.86803 6.83333 7.1665 7.13181 7.1665 7.5V10.8333C7.1665 11.2015 6.86803 11.5 6.49984 11.5C6.13165 11.5 5.83317 11.2015 5.83317 10.8333V7.5ZM9.49984 6.83333C9.13165 6.83333 8.83317 7.13181 8.83317 7.5V10.8333C8.83317 11.2015 9.13165 11.5 9.49984 11.5C9.86803 11.5 10.1665 11.2015 10.1665 10.8333V7.5C10.1665 7.13181 9.86803 6.83333 9.49984 6.83333Z" fill="#455873"/>
</svg>
