<svg width="16" height="16" viewBox="0 0 16 16" fill="none" xmlns="http://www.w3.org/2000/svg">
<path fill-rule="evenodd" clip-rule="evenodd" d="M13.8483 12.8597C14.0193 12.8597 14.1601 12.9883 14.1794 13.1541L14.1816 13.193V13.8597C14.1816 14.0306 14.053 14.1715 13.8872 14.1907L13.8483 14.193H2.15194C1.98099 14.193 1.8401 14.0643 1.82085 13.8985L1.8186 13.8597V13.193C1.8186 13.022 1.94728 12.8812 2.11306 12.8619L2.15194 12.8597H13.8483ZM10.7834 2.00231L12.7515 3.97037C13.0118 4.23072 13.0118 4.65283 12.7515 4.91318L6.41513 11.2495C6.2276 11.4371 5.97324 11.5424 5.70803 11.5424H3.54468C3.36058 11.5424 3.21134 11.3932 3.21134 11.2091V9.04579C3.21134 8.78057 3.3167 8.52622 3.50424 8.33868L9.84061 2.00231C10.101 1.74196 10.5231 1.74196 10.7834 2.00231ZM10.3118 3.41638L4.54446 9.18371V10.209H5.56979L11.3371 4.44171L10.3118 3.41638Z" fill="#455873"/>
</svg>
