<svg width="12" height="16" viewBox="0 0 12 16" fill="none" xmlns="http://www.w3.org/2000/svg">
<path d="M1.69141 7.5459C1.69141 7.30664 1.77572 7.1027 1.94434 6.93408C2.11523 6.76546 2.31917 6.68115 2.55615 6.68115C2.79541 6.68115 2.99935 6.76546 3.16797 6.93408C3.33887 7.1027 3.42432 7.30664 3.42432 7.5459C3.42432 7.78516 3.33887 7.99023 3.16797 8.16113C2.99935 8.32975 2.79541 8.41406 2.55615 8.41406C2.31917 8.41406 2.11523 8.32975 1.94434 8.16113C1.77572 7.99023 1.69141 7.78516 1.69141 7.5459ZM5.14551 7.5459C5.14551 7.30664 5.22982 7.1027 5.39844 6.93408C5.56934 6.76546 5.77327 6.68115 6.01025 6.68115C6.24951 6.68115 6.45345 6.76546 6.62207 6.93408C6.79297 7.1027 6.87842 7.30664 6.87842 7.5459C6.87842 7.78516 6.79297 7.99023 6.62207 8.16113C6.45345 8.32975 6.24951 8.41406 6.01025 8.41406C5.77327 8.41406 5.56934 8.32975 5.39844 8.16113C5.22982 7.99023 5.14551 7.78516 5.14551 7.5459ZM8.59961 7.5459C8.59961 7.30664 8.68392 7.1027 8.85254 6.93408C9.02344 6.76546 9.22738 6.68115 9.46436 6.68115C9.70361 6.68115 9.90755 6.76546 10.0762 6.93408C10.2471 7.1027 10.3325 7.30664 10.3325 7.5459C10.3325 7.78516 10.2471 7.99023 10.0762 8.16113C9.90755 8.32975 9.70361 8.41406 9.46436 8.41406C9.22738 8.41406 9.02344 8.32975 8.85254 8.16113C8.68392 7.99023 8.59961 7.78516 8.59961 7.5459Z" fill="#0053F7"/>
</svg>
