<svg width="24" height="24" viewBox="0 0 24 24" fill="none" xmlns="http://www.w3.org/2000/svg">
<rect width="24" height="24" fill="white" fill-opacity="0.01"/>
<path d="M4 19C4 19.5523 4.44772 20 5 20C5.55228 20 6 19.5523 6 19H4ZM18 19C18 19.5523 18.4477 20 19 20C19.5523 20 20 19.5523 20 19H18ZM2 18C1.44772 18 1 18.4477 1 19C1 19.5523 1.44772 20 2 20V18ZM22 20C22.5523 20 23 19.5523 23 19C23 18.4477 22.5523 18 22 18V20ZM6 19V9H4V19H6ZM6 9C6 5.68628 8.68629 3 12 3V1C7.58172 1 4 4.58172 4 9H6ZM12 3C15.3137 3 18 5.68628 18 9H20C20 4.58172 16.4183 1 12 1V3ZM18 9V19H20V9H18ZM2 20H22V18H2V20Z" fill="#455873"/>
<path fill-rule="evenodd" clip-rule="evenodd" d="M12 22C13.3807 22 14.5 20.8807 14.5 19.5V19H9.5V19.5C9.5 20.8807 10.6193 22 12 22Z" stroke="#455873" stroke-width="2" stroke-linecap="round" stroke-linejoin="round"/>
</svg>
