<svg width="32" height="32" viewBox="0 0 32 32"  xmlns="http://www.w3.org/2000/svg">
<rect width="32" height="32" rx="4"  fill-opacity="0.1"/>
<path d="M9 11C10.1045 11 11 10.1045 11 9C11 7.89543 10.1045 7 9 7C7.89543 7 7 7.89543 7 9C7 10.1045 7.89543 11 9 11Z" />
<path d="M16 11C17.1045 11 18 10.1045 18 9C18 7.89543 17.1045 7 16 7C14.8954 7 14 7.89543 14 9C14 10.1045 14.8954 11 16 11Z" />
<path d="M23 11C24.1045 11 25 10.1045 25 9C25 7.89543 24.1045 7 23 7C21.8954 7 21 7.89543 21 9C21 10.1045 21.8954 11 23 11Z" />
<path d="M9 18C10.1045 18 11 17.1045 11 16C11 14.8954 10.1045 14 9 14C7.89543 14 7 14.8954 7 16C7 17.1045 7.89543 18 9 18Z" />
<path d="M16 18C17.1045 18 18 17.1045 18 16C18 14.8954 17.1045 14 16 14C14.8954 14 14 14.8954 14 16C14 17.1045 14.8954 18 16 18Z" />
<path d="M23 18C24.1045 18 25 17.1045 25 16C25 14.8954 24.1045 14 23 14C21.8954 14 21 14.8954 21 16C21 17.1045 21.8954 18 23 18Z" />
<path d="M9 25C10.1045 25 11 24.1045 11 23C11 21.8954 10.1045 21 9 21C7.89543 21 7 21.8954 7 23C7 24.1045 7.89543 25 9 25Z" />
<path d="M16 25C17.1045 25 18 24.1045 18 23C18 21.8954 17.1045 21 16 21C14.8954 21 14 21.8954 14 23C14 24.1045 14.8954 25 16 25Z" />
<path d="M23 25C24.1045 25 25 24.1045 25 23C25 21.8954 24.1045 21 23 21C21.8954 21 21 21.8954 21 23C21 24.1045 21.8954 25 23 25Z" />
</svg>
