<svg width="32" height="32" viewBox="0 0 32 32" fill="none" xmlns="http://www.w3.org/2000/svg">
<path d="M12.189 28.781C9.95497 28.1159 7.96637 26.881 6.39175 25.2448C6.97917 24.5486 7.33317 23.6491 7.33317 22.6669C7.33317 20.4578 5.54231 18.6669 3.33317 18.6669C3.19954 18.6669 3.06743 18.6735 2.93716 18.6863C2.7597 17.8186 2.6665 16.9204 2.6665 16.0002C2.6665 14.6065 2.88035 13.2627 3.27703 11.9998C3.29571 12.0001 3.31442 12.0002 3.33317 12.0002C5.54231 12.0002 7.33317 10.2094 7.33317 8.00023C7.33317 7.36603 7.18557 6.76637 6.9229 6.23357C8.46484 4.79983 10.3468 3.72685 12.4346 3.14893C13.0961 4.44563 14.4443 5.33359 15.9998 5.33359C17.5554 5.33359 18.9036 4.44563 19.5651 3.14893C21.6528 3.72685 23.5348 4.79983 25.0768 6.23357C24.8141 6.76637 24.6665 7.36603 24.6665 8.00023C24.6665 10.2094 26.4574 12.0002 28.6665 12.0002C28.6852 12.0002 28.704 12.0001 28.7226 11.9998C29.1193 13.2627 29.3332 14.6065 29.3332 16.0002C29.3332 16.9204 29.24 17.8186 29.0625 18.6863C28.9322 18.6735 28.8002 18.6669 28.6665 18.6669C26.4574 18.6669 24.6665 20.4578 24.6665 22.6669C24.6665 23.6491 25.0205 24.5486 25.6079 25.2448C24.0333 26.881 22.0447 28.1159 19.8106 28.781C19.295 27.1682 17.7838 26.0002 15.9998 26.0002C14.2158 26.0002 12.7046 27.1682 12.189 28.781Z" stroke="white" stroke-width="2.4" stroke-linejoin="round"/>
<path d="M16.0002 20.6668C18.5775 20.6668 20.6668 18.5775 20.6668 16.0002C20.6668 13.4228 18.5775 11.3335 16.0002 11.3335C13.4228 11.3335 11.3335 13.4228 11.3335 16.0002C11.3335 18.5775 13.4228 20.6668 16.0002 20.6668Z" stroke="white" stroke-width="2.4" stroke-linejoin="round"/>
</svg>
