<svg width="16" height="16" viewBox="0 0 16 16" fill="none" xmlns="http://www.w3.org/2000/svg">
<path fill-rule="evenodd" clip-rule="evenodd" d="M2.65417 8.86981C2.29288 8.66659 2.16475 8.20896 2.36797 7.84768L4.91065 3.32735C5.41516 2.43045 6.78223 2.78856 6.78223 3.81761L6.78223 14.1237C6.78223 14.5382 6.44619 14.8743 6.03167 14.8743V14.8743C5.61715 14.8743 5.28112 14.5382 5.28112 14.1237L5.28112 5.73061L3.6763 8.58362C3.47308 8.9449 3.01545 9.07304 2.65417 8.86981V8.86981Z" fill="#0053F7"/>
<path fill-rule="evenodd" clip-rule="evenodd" d="M13.2583 7.13019C13.6196 7.33341 13.7477 7.79104 13.5445 8.15232L11.0018 12.6727C10.4973 13.5695 9.13025 13.2114 9.13025 12.1824L9.13025 1.87629C9.13025 1.46177 9.46628 1.12573 9.8808 1.12573V1.12573C10.2953 1.12573 10.6314 1.46177 10.6314 1.87629L10.6314 10.2694L12.2362 7.41638C12.4394 7.0551 12.897 6.92696 13.2583 7.13019V7.13019Z" fill="#0053F7"/>
</svg>
