<svg width="16" height="16" viewBox="0 0 16 16" fill="none" xmlns="http://www.w3.org/2000/svg">
<g clip-path="url(#clip0_260_4493)">
<path fill-rule="evenodd" clip-rule="evenodd" d="M8 0.666748C12.0501 0.666748 15.3333 3.94999 15.3333 8.00008C15.3333 12.0502 12.0501 15.3334 8 15.3334C3.94991 15.3334 0.666668 12.0502 0.666668 8.00008C0.666668 3.94999 3.94991 0.666748 8 0.666748ZM8 2.00008C4.68629 2.00008 2 4.68637 2 8.00008C2 11.3138 4.68629 14.0001 8 14.0001C11.3137 14.0001 14 11.3138 14 8.00008C14 4.68637 11.3137 2.00008 8 2.00008ZM6.35009 5.40736L8 7.05708L9.64992 5.40736C9.78009 5.27718 9.99115 5.27718 10.1213 5.40736L10.5927 5.87876C10.7229 6.00894 10.7229 6.21999 10.5927 6.35017L8.943 8.00008L10.5927 9.65C10.7229 9.78017 10.7229 9.99123 10.5927 10.1214L10.1213 10.5928C9.99115 10.723 9.78009 10.723 9.64992 10.5928L8 8.94308L6.35009 10.5928C6.21991 10.723 6.00886 10.723 5.87868 10.5928L5.40728 10.1214C5.2771 9.99123 5.2771 9.78017 5.40728 9.65L7.057 8.00008L5.40728 6.35017C5.2771 6.21999 5.2771 6.00894 5.40728 5.87876L5.87868 5.40736C6.00886 5.27718 6.21991 5.27718 6.35009 5.40736Z" fill="white"/>
</g>
<defs>
<clipPath id="clip0_260_4493">
<rect width="16" height="16" fill="white"/>
</clipPath>
</defs>
</svg>
