<svg width="16" height="16" viewBox="0 0 16 16" fill="none" xmlns="http://www.w3.org/2000/svg">
<path d="M11.1376 14.6028C11.4949 14.6028 11.825 14.4122 12.0036 14.1028L15.1606 8.63474C15.3392 8.32534 15.3392 7.94414 15.1606 7.63474L12.0036 2.1667C11.825 1.8573 11.4949 1.6667 11.1376 1.6667L4.82366 1.6667C4.4664 1.6667 4.13627 1.8573 3.95764 2.1667L0.800662 7.63474C0.622029 7.94414 0.622029 8.32534 0.800662 8.63474L3.95764 14.1028C4.13627 14.4122 4.4664 14.6028 4.82366 14.6028L11.1376 14.6028ZM10.945 13.2697L5.01597 13.2697L2.05164 8.13508L5.01597 3.00008L10.945 3.00008L13.9093 8.13508L10.945 13.2697ZM7.98064 10.558C9.31896 10.558 10.4039 9.47306 10.4039 8.13474C10.4039 6.79642 9.31896 5.7115 7.98064 5.7115C6.64231 5.7115 5.55739 6.79642 5.55739 8.13474C5.55739 9.47306 6.64231 10.558 7.98064 10.558ZM7.98064 9.22466C7.37869 9.22466 6.89072 8.73669 6.89072 8.13474C6.89072 7.5328 7.37869 7.04483 7.98064 7.04483C8.58258 7.04483 9.07055 7.5328 9.07055 8.13474C9.07055 8.73669 8.58258 9.22466 7.98064 9.22466Z" fill="#4C5A75"/>
</svg>
