<svg width="16" height="16" viewBox="0 0 16 16" fill="none" xmlns="http://www.w3.org/2000/svg">
<path fill-rule="evenodd" clip-rule="evenodd" d="M7.54369 1.03928L9.85867 3.40114C9.9857 3.53075 9.9857 3.73817 9.85867 3.86779L7.54842 6.22491C7.42948 6.34627 7.2405 6.35741 7.10872 6.25706L7.07231 6.22491L6.64936 5.79337C6.52233 5.66377 6.52232 5.45635 6.64934 5.32674L7.7416 4.21231C5.34988 4.34858 3.39406 6.267 3.26579 8.71453C3.12823 11.3392 5.14444 13.5784 7.76911 13.716C10.2211 13.8445 12.3367 12.0933 12.7166 9.72235L12.7325 9.61578C12.7354 9.59408 12.7388 9.56489 12.7426 9.52819C12.7608 9.35154 12.9143 9.22019 13.0916 9.22948L13.7585 9.26443C13.9423 9.27406 14.0835 9.4309 14.0739 9.61475L14.0727 9.63048C14.0663 9.69481 14.06 9.74964 14.0538 9.79497C13.6295 12.901 10.8864 15.2145 7.69933 15.0475C4.33929 14.8714 1.75819 12.0048 1.93428 8.64475C2.09689 5.5419 4.55389 3.10332 7.57508 2.88684L6.64934 1.94219C6.52232 1.81257 6.52233 1.60516 6.64936 1.47555L7.07231 1.04402C7.20117 0.912543 7.41221 0.910423 7.54369 1.03928Z" fill="#4C5A75"/>
</svg>
