<svg width="20" height="20" viewBox="0 0 20 20" fill="none" xmlns="http://www.w3.org/2000/svg">
<g clip-path="url(#clip0_366_5602)">
<path fill-rule="evenodd" clip-rule="evenodd" d="M10.0002 0.833252C15.0628 0.833252 19.1668 4.93731 19.1668 9.99992C19.1668 15.0625 15.0628 19.1666 10.0002 19.1666C4.93755 19.1666 0.833496 15.0625 0.833496 9.99992C0.833496 4.93731 4.93755 0.833252 10.0002 0.833252ZM10.4168 12.4999H9.5835C9.36981 12.4999 9.1937 12.6608 9.16963 12.868L9.16683 12.9166V13.7499C9.16683 13.9636 9.32768 14.1397 9.5349 14.1638L9.5835 14.1666H10.4168C10.6305 14.1666 10.8066 14.0057 10.8307 13.7985L10.8335 13.7499V12.9166C10.8335 12.7029 10.6726 12.5268 10.4654 12.5027L10.4168 12.4999ZM10.4168 5.41658H9.5835C9.36981 5.41658 9.1937 5.57744 9.16963 5.78466L9.16683 5.83325V10.8333C9.16683 11.0469 9.32768 11.223 9.5349 11.2471L9.5835 11.2499H10.4168C10.6305 11.2499 10.8066 11.0891 10.8307 10.8818L10.8335 10.8333V5.83325C10.8335 5.61957 10.6726 5.44346 10.4654 5.41939L10.4168 5.41658Z" fill="#FF9500"/>
</g>
<defs>
<clipPath id="clip0_366_5602">
<rect width="20" height="20" fill="white"/>
</clipPath>
</defs>
</svg>
